<?xml version="1.0" encoding="utf-8"?>
<!-- Generator: Adobe Illustrator 16.0.0, SVG Export Plug-In . SVG Version: 6.00 Build 0)  -->
<!DOCTYPE svg PUBLIC "-//W3C//DTD SVG 1.1//EN" "http://www.w3.org/Graphics/SVG/1.1/DTD/svg11.dtd">
<svg version="1.1" id="Layer_1" xmlns="http://www.w3.org/2000/svg" xmlns:xlink="http://www.w3.org/1999/xlink" x="0px" y="0px"
	 width="163.449px" height="162.068px" viewBox="0 0 163.449 162.068" enable-background="new 0 0 163.449 162.068"
	 xml:space="preserve">
<g>
	<circle fill="#D4A97E" cx="31.761" cy="65.098" r="14.078"/>
	<circle fill="#D4A97E" cx="132.059" cy="65.098" r="14.075"/>
	<path fill="#D4A97E" d="M47.091,80.938H16.197c-2.805,0-5.08,2.273-5.08,5.075v62.216c0,2.807,2.275,5.079,5.08,5.079
		l15.448-36.186l15.446,36.186c2.806,0,5.08-2.272,5.08-5.079V86.013C52.171,83.211,49.897,80.938,47.091,80.938z"/>
	<path fill="#D4A97E" d="M147.894,80.938h-30.896c-2.805,0-5.08,2.273-5.08,5.075v62.216c0,2.807,2.275,5.079,5.08,5.079
		l15.451-36.186l15.445,36.186c2.805,0,5.076-2.272,5.076-5.079V86.013C152.97,83.211,150.699,80.938,147.894,80.938z"/>
	<path fill="#D4A97E" d="M102.925,55.493H61.167c-3.79,0-6.864,3.076-6.864,6.867v84.085c0,3.79,3.074,6.862,6.864,6.862
		L82.043,104.4l20.882,48.907c3.789,0,6.863-3.072,6.863-6.862V62.36C109.789,58.569,106.714,55.493,102.925,55.493z"/>
	<path fill="#EFC48B" d="M109.789,62.36c0-3.791-3.074-6.867-6.863-6.867H61.167c-3.79,0-6.864,3.076-6.864,6.867H109.789z"/>
	<rect x="54.261" y="85.972" fill="#EFC48B" width="55.527" height="6.865"/>
	<rect x="54.303" y="70.701" fill="#EFC48B" width="55.485" height="6.862"/>
	<circle fill="#EFC48B" cx="82.277" cy="37.215" r="25.146"/>
	<path fill="#D4A97E" d="M101.3,37.115c0,10.505-8.519,19.021-19.023,19.021c-10.506,0-19.023-8.517-19.023-19.021
		c0-10.509,8.518-19.024,19.023-19.024C92.782,18.091,101.3,26.606,101.3,37.115z"/>
</g>
</svg>
